<svg xmlns="http://www.w3.org/2000/svg" width="17" height="17" viewBox="0 0 17 17">
  <defs>
    <style>
      .cls-1 {
        fill: #fff;
      }
    </style>
  </defs>
  <g id="Group_4" data-name="Group 4" transform="translate(12 -26)">
    <path id="Icon_awesome-fire-alt" data-name="Icon awesome-fire-alt" class="cls-1" d="M12.278,1.7a21.21,21.21,0,0,0-2.133,1.991A27.279,27.279,0,0,0,6.375,0C2.646,3.027,0,6.971,0,9.35,0,13.575,3.806,17,8.5,17S17,13.575,17,9.35c0-1.769-1.972-5.417-4.722-7.65Zm-.739,11.311a5.617,5.617,0,0,1-2.931.8c-2.738,0-4.966-1.585-4.966-4.159,0-1.282.922-2.412,2.762-4.341.263.265,3.75,4.162,3.75,4.162L12.38,7.254c.157.227.3.45.428.663A3.655,3.655,0,0,1,11.539,13.011Z" transform="translate(-12 26)"/>
  </g>
</svg>
