<svg xmlns="http://www.w3.org/2000/svg" xmlns:xlink="http://www.w3.org/1999/xlink" width="18" height="18" viewBox="0 0 18 18">
  <defs>
    <style>
      .cls-1 {
        fill: none;
      }

      .cls-2 {
        clip-path: url(#clip-path);
      }

      .cls-3 {
        fill: #fff;
      }
    </style>
    <clipPath id="clip-path">
      <rect class="cls-1" width="18" height="18"/>
    </clipPath>
  </defs>
  <g id="icon_setting" class="cls-2">
    <path id="Path_108" data-name="Path 108" class="cls-3" d="M14.963,5.85,16.2,3.487,14.625,1.912,12.263,3.15a4.03,4.03,0,0,0-1.238-.45l-.9-2.7H7.875l-.9,2.587a4.7,4.7,0,0,0-1.125.45L3.487,1.8,1.8,3.487,3.038,5.85a4.7,4.7,0,0,0-.45,1.125L0,7.875v2.25l2.587.9c.112.45.338.787.45,1.238L1.8,14.625,3.375,16.2l2.362-1.237a4.03,4.03,0,0,0,1.238.45L7.875,18h2.25l.9-2.588c.45-.113.787-.337,1.238-.45L14.625,16.2,16.2,14.625l-1.237-2.362a4.03,4.03,0,0,0,.45-1.238l2.588-.9V7.875l-2.588-.9A4.7,4.7,0,0,0,14.963,5.85ZM9,12.375A3.315,3.315,0,0,1,5.625,9,3.315,3.315,0,0,1,9,5.625,3.315,3.315,0,0,1,12.375,9,3.315,3.315,0,0,1,9,12.375Z"/>
  </g>
</svg>
