<svg xmlns="http://www.w3.org/2000/svg" xmlns:xlink="http://www.w3.org/1999/xlink" width="18" height="18" viewBox="0 0 18 18">
  <defs>
    <style>
      .cls-1 {
        fill: none;
      }

      .cls-2 {
        clip-path: url(#clip-path);
      }

      .cls-3 {
        fill: #fff;
      }
    </style>
    <clipPath id="clip-path">
      <rect class="cls-1" width="18" height="18"/>
    </clipPath>
  </defs>
  <g id="icon_dashboard" class="cls-2">
    <path id="Union_8" data-name="Union 8" class="cls-3" d="M14.625,18A1.063,1.063,0,0,1,13.5,16.875V6.75a1.063,1.063,0,0,1,1.126-1.125h2.25A1.063,1.063,0,0,1,18,6.75V16.875A1.063,1.063,0,0,1,16.875,18Zm-6.75,0A1.062,1.062,0,0,1,6.75,16.875V1.125A1.063,1.063,0,0,1,7.875,0h2.25A1.063,1.063,0,0,1,11.25,1.125v15.75A1.062,1.062,0,0,1,10.125,18Zm-6.75,0A1.063,1.063,0,0,1,0,16.875v-4.5A1.064,1.064,0,0,1,1.125,11.25h2.25A1.064,1.064,0,0,1,4.5,12.376v4.5A1.063,1.063,0,0,1,3.375,18Z"/>
  </g>
</svg>
