<svg xmlns="http://www.w3.org/2000/svg" xmlns:xlink="http://www.w3.org/1999/xlink" width="18" height="18" viewBox="0 0 18 18">
  <defs>
    <style>
      .cls-1 {
        fill: none;
      }

      .cls-2 {
        clip-path: url(#clip-path);
      }

      .cls-3 {
        fill: #fff;
      }
    </style>
    <clipPath id="clip-path">
      <rect class="cls-1" width="18" height="18"/>
    </clipPath>
  </defs>
  <g id="icon_help-center" class="cls-2">
    <path id="Path_107" data-name="Path 107" class="cls-3" d="M9,0a9,9,0,1,0,9,9A9.026,9.026,0,0,0,9,0ZM9,11.25A2.25,2.25,0,1,1,11.25,9,2.257,2.257,0,0,1,9,11.25Zm0-9a6.564,6.564,0,0,1,2.925.675l-1.751,1.75a4.04,4.04,0,0,0-2.35,0L6.075,2.925A6.564,6.564,0,0,1,9,2.25ZM2.25,9a6.564,6.564,0,0,1,.675-2.925l1.75,1.751a4.04,4.04,0,0,0,0,2.35l-1.75,1.749A6.564,6.564,0,0,1,2.25,9ZM9,15.75a6.564,6.564,0,0,1-2.925-.675l1.751-1.75a4.04,4.04,0,0,0,2.35,0l1.749,1.75A6.564,6.564,0,0,1,9,15.75Zm6.075-3.825-1.75-1.75a4.04,4.04,0,0,0,0-2.35l1.75-1.749a6.675,6.675,0,0,1,0,5.85Z"/>
  </g>
</svg>
